<?xml version="1.0" encoding="UTF-8"?>
<svg id="Layer_1" xmlns="http://www.w3.org/2000/svg" version="1.1" viewBox="0 0 200 200">
  <!-- Generator: Adobe Illustrator 30.0.0, SVG Export Plug-In . SVG Version: 2.1.1 Build 123)  -->
  <defs>
    <style>
      .st0 {
        fill: none;
      }

      .st1 {
        fill: #10b981;
        stroke: #fff;
        stroke-miterlimit: 41.28;
        stroke-width: 2.06px;
      }
    </style>
  </defs>
  <rect class="st0" width="200" height="200"/>
  <path class="st1" d="M45.3,26.63v146.75H10.01V26.63h35.3,0ZM189.99,94.95v60.27c-5.44,6.05-13.38,10.94-23.84,14.65-10.53,3.72-22.02,5.57-34.47,5.57h0c-19.26,0-34.64-5.88-46.13-17.65-11.49-11.77-17.61-28.14-18.37-49.12h0l-.1-12.69c0-14.45,2.55-27.07,7.64-37.88,5.09-10.73,12.38-19.02,21.88-24.87,9.49-5.78,20.5-8.67,33.02-8.67h0c18.3,0,32.51,4.16,42.62,12.49,10.11,8.39,16,20.88,17.65,37.46h-34.06c-1.24-8.19-3.85-14.04-7.84-17.54-4.06-3.51-9.77-5.26-17.13-5.26h0c-8.88,0-15.72,3.78-20.54,11.35-4.88,7.5-7.36,18.23-7.43,32.2h0v8.88c0,14.65,2.51,25.66,7.53,33.02s12.9,11.04,23.63,11.04h0c9.22,0,16.07-2.06,20.54-6.19h0v-22.7h-24.56v-24.36h59.96Z"/>
</svg>